<mxfile host="app.diagrams.net" agent="Mozilla/5.0 (Macintosh; Intel Mac OS X 10_15_7) AppleWebKit/537.36 (KHTML, like Gecko) Chrome/133.0.0.0 Safari/537.36" version="26.0.16">
  <diagram name="Page-1" id="KVzXBbmsmkq797dzC4uC">
    <mxGraphModel dx="1230" dy="886" grid="1" gridSize="10" guides="1" tooltips="1" connect="1" arrows="1" fold="1" page="1" pageScale="1" pageWidth="827" pageHeight="1169" math="0" shadow="0">
      <root>
        <mxCell id="0" />
        <mxCell id="1" parent="0" />
        <mxCell id="zjEWLNYS2wDTv8_ZmhZc-17" value="" style="edgeStyle=none;curved=1;rounded=0;orthogonalLoop=1;jettySize=auto;html=1;fontSize=12;startSize=8;endSize=8;" edge="1" parent="1" source="zjEWLNYS2wDTv8_ZmhZc-2" target="zjEWLNYS2wDTv8_ZmhZc-16">
          <mxGeometry relative="1" as="geometry" />
        </mxCell>
        <mxCell id="zjEWLNYS2wDTv8_ZmhZc-19" value="" style="edgeStyle=none;curved=1;rounded=0;orthogonalLoop=1;jettySize=auto;html=1;fontSize=12;startSize=8;endSize=8;" edge="1" parent="1" source="zjEWLNYS2wDTv8_ZmhZc-2" target="zjEWLNYS2wDTv8_ZmhZc-18">
          <mxGeometry relative="1" as="geometry" />
        </mxCell>
        <mxCell id="zjEWLNYS2wDTv8_ZmhZc-21" value="" style="edgeStyle=none;curved=1;rounded=0;orthogonalLoop=1;jettySize=auto;html=1;fontSize=12;startSize=8;endSize=8;" edge="1" parent="1" source="zjEWLNYS2wDTv8_ZmhZc-2" target="zjEWLNYS2wDTv8_ZmhZc-20">
          <mxGeometry relative="1" as="geometry" />
        </mxCell>
        <mxCell id="zjEWLNYS2wDTv8_ZmhZc-23" value="" style="edgeStyle=none;curved=1;rounded=0;orthogonalLoop=1;jettySize=auto;html=1;fontSize=12;startSize=8;endSize=8;" edge="1" parent="1" source="zjEWLNYS2wDTv8_ZmhZc-2" target="zjEWLNYS2wDTv8_ZmhZc-22">
          <mxGeometry relative="1" as="geometry" />
        </mxCell>
        <mxCell id="zjEWLNYS2wDTv8_ZmhZc-2" value="Trader" style="shape=umlActor;verticalLabelPosition=bottom;verticalAlign=top;html=1;outlineConnect=0;" vertex="1" parent="1">
          <mxGeometry x="180" y="220" width="30" height="60" as="geometry" />
        </mxCell>
        <mxCell id="zjEWLNYS2wDTv8_ZmhZc-9" value="LeadLink CRM" style="swimlane;whiteSpace=wrap;html=1;" vertex="1" parent="1">
          <mxGeometry x="310" y="90" width="360" height="380" as="geometry" />
        </mxCell>
        <mxCell id="zjEWLNYS2wDTv8_ZmhZc-18" value="Clien management" style="ellipse;whiteSpace=wrap;html=1;" vertex="1" parent="zjEWLNYS2wDTv8_ZmhZc-9">
          <mxGeometry x="74" y="50" width="120" height="50" as="geometry" />
        </mxCell>
        <mxCell id="zjEWLNYS2wDTv8_ZmhZc-20" value="Sales Pipeline management" style="ellipse;whiteSpace=wrap;html=1;" vertex="1" parent="zjEWLNYS2wDTv8_ZmhZc-9">
          <mxGeometry x="74" y="125" width="120" height="40" as="geometry" />
        </mxCell>
        <mxCell id="zjEWLNYS2wDTv8_ZmhZc-22" value="Displaying reports" style="ellipse;whiteSpace=wrap;html=1;" vertex="1" parent="zjEWLNYS2wDTv8_ZmhZc-9">
          <mxGeometry x="74" y="300" width="120" height="40" as="geometry" />
        </mxCell>
        <mxCell id="zjEWLNYS2wDTv8_ZmhZc-25" value="User management" style="ellipse;whiteSpace=wrap;html=1;" vertex="1" parent="zjEWLNYS2wDTv8_ZmhZc-9">
          <mxGeometry x="230" y="90" width="120" height="50" as="geometry" />
        </mxCell>
        <mxCell id="zjEWLNYS2wDTv8_ZmhZc-16" value="Sign up / login" style="ellipse;whiteSpace=wrap;html=1;" vertex="1" parent="zjEWLNYS2wDTv8_ZmhZc-9">
          <mxGeometry x="74" y="190" width="120" height="40" as="geometry" />
        </mxCell>
        <mxCell id="zjEWLNYS2wDTv8_ZmhZc-24" value="" style="edgeStyle=none;curved=1;rounded=0;orthogonalLoop=1;jettySize=auto;html=1;fontSize=12;startSize=8;endSize=8;" edge="1" parent="1" source="zjEWLNYS2wDTv8_ZmhZc-13" target="zjEWLNYS2wDTv8_ZmhZc-22">
          <mxGeometry relative="1" as="geometry" />
        </mxCell>
        <mxCell id="zjEWLNYS2wDTv8_ZmhZc-29" value="" style="edgeStyle=none;curved=1;rounded=0;orthogonalLoop=1;jettySize=auto;html=1;fontSize=12;startSize=8;endSize=8;" edge="1" parent="1" source="zjEWLNYS2wDTv8_ZmhZc-13" target="zjEWLNYS2wDTv8_ZmhZc-16">
          <mxGeometry relative="1" as="geometry" />
        </mxCell>
        <mxCell id="zjEWLNYS2wDTv8_ZmhZc-13" value="Manager" style="shape=umlActor;verticalLabelPosition=bottom;verticalAlign=top;html=1;outlineConnect=0;" vertex="1" parent="1">
          <mxGeometry x="180" y="390" width="30" height="60" as="geometry" />
        </mxCell>
        <mxCell id="zjEWLNYS2wDTv8_ZmhZc-26" value="" style="edgeStyle=none;curved=1;rounded=0;orthogonalLoop=1;jettySize=auto;html=1;fontSize=12;startSize=8;endSize=8;" edge="1" parent="1" source="zjEWLNYS2wDTv8_ZmhZc-14" target="zjEWLNYS2wDTv8_ZmhZc-25">
          <mxGeometry relative="1" as="geometry" />
        </mxCell>
        <mxCell id="zjEWLNYS2wDTv8_ZmhZc-30" value="" style="edgeStyle=none;curved=1;rounded=0;orthogonalLoop=1;jettySize=auto;html=1;fontSize=12;startSize=8;endSize=8;" edge="1" parent="1" source="zjEWLNYS2wDTv8_ZmhZc-14" target="zjEWLNYS2wDTv8_ZmhZc-16">
          <mxGeometry relative="1" as="geometry" />
        </mxCell>
        <mxCell id="zjEWLNYS2wDTv8_ZmhZc-14" value="Admin" style="shape=umlActor;verticalLabelPosition=bottom;verticalAlign=top;html=1;outlineConnect=0;" vertex="1" parent="1">
          <mxGeometry x="710" y="270" width="30" height="60" as="geometry" />
        </mxCell>
      </root>
    </mxGraphModel>
  </diagram>
</mxfile>
